<svg id="Blue" xmlns="http://www.w3.org/2000/svg" viewBox="0 0 300 113"><path fill="#FFFFFF" d="M112.9,22.3h-4.1v-2h10.4v2H115v12.6h-2.2V22.3z M135.5,32.8h-7.4v-4.2h7.4v-2.1h-7.4v-4.1h7.4v-2.1H126v14.6h9.5V32.8z M144,34.9l3.5-5.6l3.5,5.6h2.5l-4.7-7.4l4.5-7.1h-2.4l-3.4,5.3l-3.3-5.3h-2.4l4.5,7.2l-4.7,7.4L144,34.9z M160.3,34.9H158l5.6-14.6h2.2l5.6,14.6h-2.3l-1.2-3.1h-6.6L160.3,34.9z M162.2,29.7h5l-2.6-6.7L162.2,29.7z M182.1,33c-1.8,0-3.5-0.9-4.4-2.5l-1.9,1.5c1.4,2,3.8,3.2,6.3,3.1c3.3,0,5.1-2.1,5.1-4.3c0-3.2-2.6-3.8-4.8-4.3c-1.9-0.4-3.6-0.7-3.6-2.2c0-1.3,0.8-2.2,2.8-2.2c1.5-0.1,2.9,0.7,3.8,1.9l1.8-1.4c-1.4-1.7-3.4-2.6-5.5-2.5c-2.9,0-5,1.9-5,4.2c0,2.9,2.3,3.5,4.7,4c1.9,0.4,3.8,0.8,3.8,2.5C185,32.1,184,33,182.1,33L182.1,33z M202.5,23.9l4.7,6.4l4.9-6.5v11.1h2.1V20.3H212l-4.9,6.6l-4.7-6.6h-2.1v14.6h2.2L202.5,23.9z M226.9,35.1c2.9,0.2,5.5-2.1,5.6-5c0-0.2,0-0.4,0-0.7v-9.1h-2.2v9.2c0.1,1.9-1.3,3.5-3.2,3.6c-1.9,0.1-3.5-1.3-3.6-3.2c0-0.1,0-0.3,0-0.4v-9.2h-2.2v9.1c-0.2,2.9,2,5.5,5,5.6C226.4,35.1,226.6,35.1,226.9,35.1L226.9,35.1z M249.8,30.7c0-3.2-2.5-3.8-4.8-4.3c-1.9-0.4-3.6-0.7-3.6-2.2c0-1.3,0.8-2.2,2.8-2.2c1.5-0.1,2.9,0.7,3.8,1.9l1.8-1.4c-1.4-1.7-3.4-2.6-5.5-2.5c-2.9,0-5,1.9-5,4.2c0,2.9,2.3,3.5,4.7,4c2,0.4,3.8,0.8,3.8,2.5c0,1.3-1,2.3-3,2.3c-1.8,0-3.5-0.9-4.4-2.5l-1.9,1.5c1.4,2,3.8,3.2,6.3,3.1C248,35.1,249.8,33,249.8,30.7L249.8,30.7z M258.9,20.3h-2.2v14.6h2.2V20.3z M272.3,35.1c2.8,0,5.4-1.6,6.6-4.1l-1.9-1c-0.8,1.8-2.7,3-4.7,3c-3,0-5.4-2.4-5.4-5.4c0-3,2.4-5.4,5.4-5.4c1.9,0,3.7,1,4.6,2.7l1.9-1.2c-2.1-3.6-6.6-4.8-10.2-2.7c-2.3,1.3-3.8,3.9-3.7,6.6c-0.1,4.1,3.2,7.4,7.2,7.5C272.1,35.1,272.2,35.1,272.3,35.1z M119.2,51.2V49h-10v15.2h10V62h-7.7v-4.4h7.7v-2.2h-7.7v-4.4H119.2z M141,56.6c0,4.2-3.3,7.6-7.5,7.6c-0.1,0-0.3,0-0.4,0h-4.5V49h4.4C137.9,49,141,52.3,141,56.6L141,56.6z M138.6,56.6c0-3.2-2.1-5.5-5.9-5.5h-1.9v11h2c3,0.2,5.6-2,5.8-5.1C138.7,56.9,138.7,56.8,138.6,56.6L138.6,56.6z M160,58.5V49h-2.3v9.6c0,2-1.6,3.6-3.6,3.6c-2,0-3.6-1.6-3.6-3.6V49h-2.3v9.5c0,3.2,2.6,5.9,5.9,5.9c3.2,0,5.9-2.6,5.9-5.9L160,58.5z M182.5,60.1l-2-1.1c-0.8,1.9-2.8,3.1-4.8,3.1c-3.1-0.1-5.5-2.8-5.3-5.9c0.1-2.9,2.4-5.2,5.3-5.3c2,0,3.8,1.1,4.7,2.9l2-1.2c-2.2-3.7-7-5-10.7-2.8c-3.7,2.2-5,7-2.8,10.7c2.2,3.7,7,5,10.7,2.8C180.8,62.6,181.9,61.5,182.5,60.1L182.5,60.1z M197.1,49l5.9,15.2h-2.3l-1.2-3.2h-6.9l-1.2,3.2h-2.3L195,49H197.1z M198.6,58.8l-2.6-7l-2.6,7H198.6z M208.9,51.1h4.3v13.1h2.3V51.1h4.3V49H209L208.9,51.1z M241.2,56.6c0,4.3-3.5,7.8-7.8,7.8c-4.3,0-7.8-3.5-7.8-7.8c0-4.3,3.5-7.8,7.8-7.8c0,0,0,0,0.1,0C237.7,48.8,241.2,52.3,241.2,56.6C241.2,56.6,241.2,56.6,241.2,56.6L241.2,56.6z M238.9,56.6c0-3.1-2.5-5.5-5.6-5.5c-3.1,0-5.5,2.5-5.5,5.6c0,3,2.5,5.4,5.5,5.5c3.1,0,5.6-2.4,5.6-5.5C239,56.7,239,56.6,238.9,56.6L238.9,56.6z M248.8,49h5.9c3.3,0,5.5,2.1,5.5,5.1c0,2-1.1,3.7-2.9,4.5l3.2,5.6h-2.6l-2.8-5H251v5h-2.3L248.8,49z M251.1,57.1h3.5c1.7,0.2,3.2-1,3.3-2.7c0-0.1,0-0.3,0-0.4c0-1.7-1.2-2.9-3.4-2.9h-3.5V57.1z M274.4,55.4c-2-0.4-3.8-0.7-3.8-2.3c0-1.3,0.8-2.3,2.9-2.3c1.6-0.1,3.1,0.7,3.9,2l1.9-1.5c-1.4-1.7-3.6-2.7-5.8-2.6c-3.1,0-5.2,2-5.2,4.4c0,3,2.5,3.7,4.8,4.1c2,0.4,4,0.8,4,2.6c0,1.4-1.1,2.3-3.1,2.3c-1.9,0-3.6-1-4.6-2.6l-2,1.6c1.5,2.1,4,3.3,6.6,3.2c3.5,0,5.4-2.2,5.4-4.5C279.5,56.6,276.8,55.9,274.4,55.4z M115.3,79l5.6,14.6h-2.3l-1.2-3.1H111l-1.2,3.1h-2.3l5.6-14.6L115.3,79z M116.8,88.3l-2.5-6.7l-2.5,6.7L116.8,88.3z M131.4,85.1c-1.9-0.4-3.6-0.7-3.6-2.2c0-1.3,0.8-2.2,2.8-2.2c1.5-0.1,2.9,0.7,3.8,1.9l1.8-1.4c-1.4-1.7-3.4-2.6-5.5-2.5c-2.9,0-5,1.9-5,4.2c0,2.9,2.3,3.5,4.7,4c2,0.4,3.8,0.8,3.8,2.5c0,1.3-1,2.3-3,2.3c-1.8,0-3.5-0.9-4.4-2.5l-1.9,1.5c1.4,2,3.8,3.2,6.3,3c3.3,0,5.1-2.1,5.1-4.3C136.2,86.2,133.7,85.5,131.4,85.1L131.4,85.1z M147.7,85.1c-1.9-0.4-3.6-0.7-3.6-2.2c0-1.3,0.8-2.2,2.8-2.2c1.5-0.1,2.9,0.7,3.7,1.9l1.8-1.4c-1.4-1.7-3.4-2.6-5.5-2.5c-2.9,0-5,1.9-5,4.2c0,2.9,2.3,3.5,4.7,4c2,0.4,3.8,0.8,3.8,2.5c0,1.3-1,2.3-3,2.3c-1.8,0-3.5-0.9-4.4-2.5l-1.9,1.5c1.4,2,3.8,3.2,6.3,3c3.3,0,5.1-2.1,5.1-4.3C152.6,86.2,150,85.5,147.7,85.1L147.7,85.1z M171.8,86.3c0,4.1-3.4,7.5-7.5,7.5c-4.1,0-7.5-3.4-7.5-7.5c0-4.1,3.3-7.5,7.5-7.5C168.5,78.8,171.8,82.1,171.8,86.3C171.8,86.2,171.8,86.2,171.8,86.3L171.8,86.3z M169.6,86.3c0-2.9-2.4-5.3-5.4-5.2c-2.9,0-5.3,2.4-5.2,5.4c0,2.9,2.4,5.2,5.3,5.2C167.3,91.6,169.7,89.2,169.6,86.3C169.6,86.3,169.6,86.3,169.6,86.3L169.6,86.3z M183.6,91.6c-3,0-5.4-2.4-5.4-5.4c0-3,2.4-5.4,5.4-5.4c1.9,0,3.7,1,4.5,2.7l1.9-1.2c-1.3-2.3-3.8-3.7-6.4-3.7c-4.1,0-7.5,3.3-7.5,7.4c0,4.1,3.3,7.5,7.4,7.5c2.8,0,5.4-1.6,6.7-4.1l-2-1C187.4,90.4,185.6,91.6,183.6,91.6L183.6,91.6z M196.2,93.5h2.2V79h-2.2V93.5z M212.2,79l5.7,14.5h-2.3l-1.2-3.1h-6.6l-1.2,3.1h-2.2L210,79L212.2,79z M213.6,88.4l-2.5-6.7l-2.5,6.6L213.6,88.4z M221.1,81h4.1v12.5h2.2V81h4.1v-2h-10.4V81z M238,93.5h2.2V79H238V93.5z M260.9,86.3c0,4.1-3.4,7.5-7.5,7.5c-4.1,0-7.5-3.4-7.5-7.5c0-4.1,3.3-7.5,7.5-7.5C257.5,78.8,260.9,82.1,260.9,86.3C260.9,86.2,260.9,86.2,260.9,86.3L260.9,86.3z M258.7,86.3c0-2.9-2.4-5.3-5.4-5.2c-2.9,0-5.3,2.4-5.2,5.4c0,2.9,2.4,5.2,5.3,5.2C256.3,91.6,258.7,89.2,258.7,86.3C258.7,86.3,258.7,86.3,258.7,86.3L258.7,86.3z M275.7,90l-7.3-11h-2.3v14.5h2.1V82.3l7.4,11.2h2.2V79h-2.1L275.7,90z M48.7,56c0.3,0,0.6-0.2,0.6-0.6c0,0,0,0,0,0V38.3H31.5v17.2c0,0.3,0.2,0.6,0.6,0.6l0,0L48.7,56z M87.2,18.6c-2.4-0.1-4.7,0.9-6.3,2.6c-1.7,1.6-2.6,3.9-2.6,6.2v28.1c0,0.3,0.3,0.6,0.6,0.6h16.6c0.3,0,0.6-0.2,0.6-0.6c0,0,0,0,0,0V27.4C96,22.5,92.1,18.6,87.2,18.6z M68.5,18.6c-4.8,0.1-8.8,4-8.8,8.8v28.1c0,0.3,0.2,0.6,0.6,0.6c0,0,0,0,0,0h16.6c0.3,0,0.6-0.2,0.6-0.6c0,0,0,0,0,0V27.4c0-2.3-0.9-4.6-2.6-6.2C73.1,19.5,70.8,18.5,68.5,18.6L68.5,18.6z M76.8,57.1c-4.5,0-8.8,1.9-11.9,5.1c-3.4,3.3-5.3,7.9-5.2,12.6V93c0,0.3,0.2,0.6,0.6,0.6c0,0,0,0,0,0h16.6c0.3,0,0.6-0.2,0.6-0.6l0,0V57.7C77.4,57.4,77.1,57.1,76.8,57.1C76.8,57.1,76.8,57.1,76.8,57.1z M58,19.6H22.7c-0.3,0-0.6,0.2-0.6,0.6c0,0,0,0,0,0v16.6c0,0.3,0.2,0.6,0.5,0.6c0,0,0,0,0,0H58c0.3,0,0.6-0.2,0.6-0.6c0,0,0,0,0,0V20.2C58.5,19.8,58.3,19.6,58,19.6L58,19.6L58,19.6z M78.9,57.1c-0.3,0-0.6,0.2-0.6,0.5c0,0,0,0,0,0V93c0,0.3,0.3,0.6,0.6,0.6h16.6c0.3,0,0.6-0.2,0.6-0.6l0,0V74.8c0.1-4.7-1.8-9.3-5.2-12.6C87.7,59,83.4,57.1,78.9,57.1L78.9,57.1z M58,75.8H30c-2.4,0-4.7,0.9-6.3,2.6c-1.7,1.6-2.6,3.9-2.6,6.2c0,4.9,4,8.9,8.9,8.9h28c0.3,0,0.6-0.2,0.6-0.6l0,0V76.4C58.5,76.1,58.3,75.8,58,75.8C58,75.8,58,75.8,58,75.8z M58,57.1H30c-2.3,0-4.6,0.9-6.3,2.5c-1.7,1.7-2.6,3.9-2.6,6.3c0,4.9,4,8.9,8.9,8.9h28c0.3,0,0.6-0.2,0.6-0.6c0,0,0,0,0,0V57.7C58.5,57.4,58.3,57.1,58,57.1C58,57.1,58,57.1,58,57.1L58,57.1z"/></svg>